<svg 
class="page-title-icon"
version="1.1" xmlns="http://www.w3.org/2000/svg" xmlns:xlink="http://www.w3.org/1999/xlink" x="0px" y="0px" viewBox="0 0 256 256" enable-background="new 0 0 256 256" xml:space="preserve">
    <g><path fill="#000000" d="M229.8,46.4v42.3h7.1c5,0,9.1,4.2,9.1,9.2c0,5-4,9-9.1,9h-23.2c7.9,12.8,8,29.5,0,42.5h23.2c5,0,9.1,3.9,9.1,8.9c0,5.2-4,9.2-9.1,9.2h-7.1v42.4h7.1c5,0,9.1,4,9.1,9.1c0,4.9-4,8.9-9.1,8.9H74c-30.6,0-46.9-35.6-31.7-60.4H19.1c-5,0-9.1-4-9.1-9.2c0-5,4-8.9,9.1-8.9h7.1v-42.5h-7.1c-5,0-9.1-4.1-9.1-9c0-5,4-9.2,9.1-9.2h23.2C27.1,63.9,43.4,28.3,74,28.3h162.9c5,0,9.1,4,9.1,9c0,5-4,9.1-9.1,9.1L229.8,46.4L229.8,46.4z M182.3,106.8L182.3,106.8H182c-48.3,0-96.6,0-145,0v42.5c48.3,0,96.6,0,145,0h0.3c5.1-0.3,9.9-2.5,13.4-6.1c7.8-8.4,7.8-22.2,0-30.4C192.2,109.2,187.3,107,182.3,106.8L182.3,106.8z M219,167.4L219,167.4c-48.3,0-96.7,0-145,0c-5.2,0-10.1,2.3-13.6,6c-11.7,12.4-4.8,36.4,13.6,36.4h145V167.4L219,167.4z M219,88.6L219,88.6V46.4H74c-18.3,0-25.2,24.1-13.6,36.3c3.4,3.7,8.1,5.9,13.3,5.9H74C122.3,88.6,170.7,88.6,219,88.6L219,88.6z"/></g><
</svg>
