<svg class="page-title-icon"
version="1.1" xmlns="http://www.w3.org/2000/svg" xmlns:xlink="http://www.w3.org/1999/xlink" x="0px" y="0px" viewBox="0 0 256 256" enable-background="new 0 0 256 256" xml:space="preserve">
    <g>
        <path d="M74.3,10.8c-0.9,0.5-2,1.4-2.5,2.1c-0.9,1.3-0.9,2-1.1,23.3c-0.1,15.9,0,22.4,0.4,23.3c0.3,0.7,1.3,1.9,2.1,2.7c3,2.6,8.2,1.6,10.2-1.9c0.8-1.4,0.8-3.2,0.8-23.6c0-21.7,0-22.1-1-23.4C80.9,10.1,77.5,9.1,74.3,10.8z"/>
        <path d="M175.3,11c-0.9,0.6-2,1.7-2.5,2.4c-0.9,1.3-1,1.9-1.1,22.8c-0.1,20.6-0.1,21.6,0.8,23.6c1.2,2.7,3.2,3.9,6.4,3.9c1.9,0,2.7-0.2,3.8-1.2c2.9-2.4,2.8-1.8,2.8-25.4c0-19-0.1-21.8-0.7-23.2C183,10.3,178.3,8.9,175.3,11z"/>
        <path d="M37.4,30.3c-6.2,0.9-12.4,5.6-15.3,11.5l-1.7,3.5l-0.1,91.8l-0.1,91.8l1,2.9c2,5.9,6.4,10.6,12.4,13l2.6,1.1l90.5,0.1c63.5,0.1,91.3,0,92.9-0.4c7.2-1.5,13-6.8,15.4-13.8c0.9-2.8,0.9-3.1,0.8-94.6l-0.1-91.8l-1.5-3.1c-3-6.2-9.1-10.9-15.9-11.9c-1.7-0.2-8.9-0.4-16.2-0.3l-13.2,0.1l-0.1,6.8l-0.1,6.8l14.6,0.1C217.1,44,217.8,44,219,45c0.7,0.5,1.7,1.5,2.2,2.2c0.9,1.3,1,1.8,1,18.9v17.7l-94.3,0.1L33.5,84l0.1-17.8c0.1-17.1,0.2-17.9,1.1-19.1c0.5-0.7,1.5-1.7,2.2-2.2c1.2-0.9,1.9-1,15.6-1.1l14.3-0.1l0.2-4.3c0-2.4,0-5.5,0-6.9l-0.2-2.6l-13.5,0C45.9,30,38.8,30.1,37.4,30.3z M222.4,162.6l-0.1,64.7l-1.1,1.7c-2.1,3.5,6,3.2-93.2,3.2c-86,0-89.1,0-90.6-0.9c-0.9-0.5-2-1.6-2.5-2.4c-0.9-1.6-0.9-2.5-1.1-66.3l-0.1-64.7H128h94.4L222.4,162.6z"/>
        <path d="M65.3,118.7c-2.6,1.8-3.1,3-3.1,9.1c0,6.2,0.6,7.8,3.3,9.5c1.4,0.8,2.4,0.9,10.8,0.9c8.9,0,9.4,0,10.8-1.1c3.1-2.1,3.5-3.1,3.5-9c0-6.1-0.6-7.8-3.1-9.4c-1.3-0.8-2.4-0.9-11.2-0.9C67.7,117.8,66.5,117.9,65.3,118.7z"/>
        <path d="M116.9,118.9c-2.7,1.8-3.2,3.5-3.1,9.6c0.1,4.8,0.3,5.5,1.2,6.9c1.8,2.5,3.1,2.8,13.1,2.8c9.8,0,11.2-0.3,13.1-3c0.9-1.3,1-2.1,1.2-6.8c0.1-6.1-0.4-7.8-3.1-9.6c-1.5-1-1.9-1.1-11.2-1.1C118.8,117.8,118.4,117.9,116.9,118.9z"/>
        <path d="M168.4,118.7c-2.6,1.6-3.1,3.2-3.1,9.4c0,6,0.4,6.9,3.5,9c1.4,1,1.9,1.1,10.8,1.1c8.5,0,9.4-0.1,10.8-0.9c2.8-1.7,3.3-3.2,3.3-9.5c0-6.1-0.4-7.3-3.1-9.1c-1.2-0.8-2.3-0.9-11.1-0.9C170.8,117.8,169.8,117.9,168.4,118.7z"/>
        <path d="M66.2,155.3c-0.5,0.2-1.6,1.2-2.5,2.1l-1.5,1.7l0.2,6.2c0.1,6.1,0.1,6.2,1.5,7.5c2.2,2.3,3.1,2.4,13.3,2.3c10.4-0.1,10.9-0.3,12.8-3.4c1.3-2.1,1.2-11.4-0.1-13.6c-1.9-3.1-2.7-3.3-13.2-3.3C71.4,154.9,66.7,155.1,66.2,155.3z"/>
        <path d="M116.9,155.9c-2.5,1.7-3.2,3.5-3.2,9.1c0,5.6,0.6,7.5,3.2,9.1c1.5,1,1.9,1.1,11.2,1.1c9.2,0,9.6,0,11.1-1.1c2.6-1.8,3.2-3.6,3.2-9.1c0-5.6-0.6-7.5-3.2-9.1c-1.5-1-1.9-1.1-11.2-1.1C118.8,154.9,118.4,154.9,116.9,155.9z"/>
        <path d="M168.3,156c-2.4,1.7-3,3.4-3,9.3c0,4.5,0.1,5.3,1.1,6.8c1.8,2.9,3,3.2,13.3,3.2c9.8,0,10.5-0.1,12.7-2.5c1.1-1.2,1.2-1.4,1.2-7.7v-6.4l-1.8-1.7l-1.7-1.8L180,155C169.9,154.8,169.9,154.8,168.3,156z"/>
        <path d="M65.8,192.8c-3.1,1.9-3.2,2.3-3.2,9.4v6.4l1.8,1.7L66,212l9.9,0.1c11.1,0.2,11.9,0,13.9-3.1c0.9-1.5,1-2.3,1-7c0-4.7-0.1-5.5-1.1-7c-1.8-2.9-3-3.2-13.4-3.2C68.2,191.9,67,192,65.8,192.8z"/>
        <path d="M116.9,193c-2.5,1.7-3.2,3.5-3.2,9.1s0.6,7.5,3.2,9.1c1.5,1,1.9,1.1,11.2,1.1c9.2,0,9.6,0,11.2-1.1c2.5-1.7,3.2-3.5,3.2-9.1s-0.6-7.5-3.2-9.1c-1.5-1-1.9-1.1-11.2-1.1C118.8,191.9,118.4,191.9,116.9,193z"/>
        <path d="M87.7,36.8v6.9H128h40.3v-6.9v-6.9H128H87.7V36.8z"/>
    </g>
</svg>