<svg
class="page-title-icon"
version="1.1" xmlns="http://www.w3.org/2000/svg" xmlns:xlink="http://www.w3.org/1999/xlink" x="0px" y="0px" viewBox="0 0 256 256" enable-background="new 0 0 256 256" xml:space="preserve">
<g>
    <path d="M128,10C62.8,10,10,62.8,10,128c0,65.2,52.8,118,118,118c65.2,0,118-52.8,118-118C246,62.8,193.2,10,128,10L128,10z M128,228.7c-55.6,0-100.7-45.1-100.7-100.7C27.3,72.4,72.4,27.3,128,27.3S228.7,72.4,228.7,128C228.7,183.6,183.6,228.7,128,228.7L128,228.7z"/>
    <path d="M128,89.4c3.9,0,7.8-1.6,10.6-4.4c2.8-2.8,4.4-6.6,4.4-10.6s-1.6-7.8-4.4-10.6c-2.8-2.8-6.7-4.4-10.6-4.4c-3.9,0-7.8,1.6-10.6,4.4c-2.8,2.8-4.4,6.6-4.4,10.6s1.6,7.8,4.4,10.6C120.2,87.8,124.1,89.4,128,89.4z"/>
    <path d="M133.1,101.8h-10.2c-3.8,0-6.9,3.1-6.9,6.9v80.8c0,3.8,3.1,6.9,6.9,6.9h10.2c3.8,0,6.9-3.1,6.9-6.9v-80.8C140,104.9,136.9,101.8,133.1,101.8z"/>
</g>
</svg>