<svg 
class="page-title-icon"
version="1.1" xmlns="http://www.w3.org/2000/svg" xmlns:xlink="http://www.w3.org/1999/xlink" x="0px" y="0px" viewBox="0 0 256 256" enable-background="new 0 0 256 256" xml:space="preserve">
<g>
<path d="M246,220.7c0,13.5-11.8,25.3-25.3,25.3H35.3C21.8,246,10,234.2,10,220.7V84.2c0-13.5,11.8-25.3,25.3-25.3h185.4c13.5,0,25.3,11.8,25.3,25.3V220.7z M230.8,84.2c0-6.7-5.1-10.1-10.1-10.1H35.3c-6.7-1.7-10.1,3.4-10.1,10.1v136.5c0,6.7,5.1,10.1,10.1,10.1h185.4c5.1,0,10.1-5.1,10.1-10.1V84.2z"/>
<path d="M158.3,72.4c-3.4,0-6.7-3.4-6.7-6.7v-32c0-6.7-8.4-8.4-13.5-8.4h-25.3c-1.7,0-8.4,0-8.4,8.4v32c0,3.4-3.4,6.7-6.7,6.7s-6.7-3.4-6.7-6.7v-32C89.2,20.1,97.7,10,112.8,10h30.3c15.2,0,23.6,10.1,23.6,23.6v32C166.8,69,163.4,72.4,158.3,72.4z"/>
<path d="M104.4,153.3H57.2c-1.7,0-3.4-1.7-3.4-3.4s1.7-3.4,3.4-3.4h47.2c1.7,0,3.4,1.7,3.4,3.4S106.1,153.3,104.4,153.3z"/>
<path d="M35.3,153.3H18.4c-1.7,0-3.4-1.7-3.4-3.4s1.7-3.4,3.4-3.4H37c1.7,0,3.4,1.7,3.4,3.4S38.7,153.3,35.3,153.3z"/>
<path d="M239.3,153.3h-91c-1.7,0-3.4-1.7-3.4-3.4s1.7-3.4,3.4-3.4h91c1.7,0,3.4,1.7,3.4,3.4S240.9,153.3,239.3,153.3z"/>
<path d="M151.6,161.7c0,8.4-6.7,15.2-15.2,15.2h-16.9c-8.4,0-15.2-6.7-15.2-15.2v-18.5c0-8.4,6.7-15.2,15.2-15.2h16.9c8.4,0,15.2,6.7,15.2,15.2V161.7z M144.9,143.2c0-5.1-3.4-8.4-6.7-8.4h-16.9c-6.7,0-10.1,3.4-10.1,8.4v18.5c0,5.1,3.4,8.4,6.7,8.4h16.9c6.7-1.7,10.1-5.1,10.1-8.4V143.2z"/></g>
</svg>